<svg xmlns="http://www.w3.org/2000/svg" xmlns:xlink="http://www.w3.org/1999/xlink" version="1.1" id="Layer_1" x="0px" y="0px" width="100%" viewBox="0 0 1024 640" enable-background="new 0 0 1024 640" xml:space="preserve">
<style>
    .logo-path {
      fill: var(--theme-logo-color, #121313);
    }
    @media (prefers-color-scheme: dark) {
      .logo-path {
        fill: var(--theme-logo-color, #EDEDEF);
      }
    }
  </style>
<g transform="scale(1.7) ">
<path class="logo-path" opacity="1.000000" stroke="none" d=" M606.000000,260.811279   C626.830017,260.827667 647.160889,260.964355 667.489685,260.814697   C679.597351,260.725586 688.748352,255.205963 693.588135,244.020416   C700.126892,228.908203 689.287109,211.411102 672.460022,209.301895   C670.318726,209.033493 668.137878,208.997040 665.975220,208.995438   C624.815308,208.965042 583.654785,209.056152 542.496094,208.827255   C536.766968,208.795410 533.600525,210.646454 530.846802,215.750336   C489.085938,293.151886 447.115387,370.440308 405.182831,447.749176   C404.485474,449.034912 404.077301,450.579987 401.464294,451.632507   C345.880096,349.092224 290.243713,246.455612 234.703171,143.995834   C236.466370,141.485580 238.631912,142.042953 240.509033,142.037674   C263.838409,141.971924 287.168182,142.018524 310.497253,141.903915   C313.907318,141.887177 315.892212,143.039673 317.564636,146.125824   C342.165192,191.521622 366.897217,236.846161 391.592621,282.190552   C394.433289,287.406433 394.863678,287.547089 399.790741,284.269073   C415.995911,273.487610 426.263489,257.832794 435.312042,241.132996   C452.134705,210.085464 469.139893,179.136307 485.831421,148.018723   C488.302246,143.412399 491.236206,141.835083 496.401917,141.850403   C553.558777,142.019974 610.720398,141.541443 667.872253,142.103149   C703.509216,142.453384 732.949585,156.463577 753.459351,186.426041   C774.364258,216.965958 772.929810,258.369141 750.419128,287.940704   C745.672668,294.175964 744.639587,292.830231 750.577087,300.943329   C767.986572,324.731903 772.733154,351.084137 764.400696,379.098938   C755.347900,409.535828 733.866760,428.806305 704.870300,440.134369   C692.491516,444.970398 679.474609,446.476288 666.168640,446.453583   C597.524475,446.336456 528.880005,446.405975 460.235596,446.392578   C458.434631,446.392212 456.563965,446.726624 454.869232,445.743652   C453.962921,443.846771 455.287323,442.554108 456.106812,441.185699   C467.146759,422.750854 478.399445,404.439301 489.137970,385.830902   C491.810852,381.199249 494.913605,379.878357 499.920074,379.891266   C553.910950,380.030212 607.902222,379.987091 661.893433,379.992462   C668.065918,379.993103 674.154419,379.875641 679.955383,377.098785   C690.252625,372.169617 696.989258,361.087280 695.523010,350.915771   C693.880676,339.523682 684.103638,329.824982 672.556885,328.321381   C669.595520,327.935760 666.573730,327.898132 663.579651,327.897339   C618.753662,327.885315 573.927734,327.908295 529.101746,327.912964   C526.980469,327.913177 524.782837,328.229828 522.162598,326.468262   C525.713379,320.067841 529.190674,313.720215 532.742065,307.414398   C540.670715,293.336487 548.721802,279.326538 556.521667,265.177948   C558.278320,261.991455 560.357178,260.701355 564.015259,260.747955   C577.841553,260.924103 591.671448,260.814026 606.000000,260.811279  z"/>
</g>
</svg>